<svg width="20" height="20" viewBox="0 0 20 20" fill="none" xmlns="http://www.w3.org/2000/svg">
<path d="M10 20C15.5228 20 20 15.5228 20 10C20 4.47715 15.5228 0 10 0C4.47715 0 0 4.47715 0 10C0 15.5228 4.47715 20 10 20Z" fill="#FFDD67"/>
<path opacity="0.8" d="M16.2666 14C17.7394 14 18.9333 12.8061 18.9333 11.3333C18.9333 9.86058 17.7394 8.66667 16.2666 8.66667C14.7939 8.66667 13.6 9.86058 13.6 11.3333C13.6 12.8061 14.7939 14 16.2666 14Z" fill="#FF717F"/>
<path opacity="0.8" d="M3.73335 14C5.20611 14 6.40001 12.8061 6.40001 11.3333C6.40001 9.86058 5.20611 8.66667 3.73335 8.66667C2.26059 8.66667 1.06668 9.86058 1.06668 11.3333C1.06668 12.8061 2.26059 14 3.73335 14Z" fill="#FF717F"/>
<path d="M14.2 12.7667C11.5 14.6667 8.50004 14.6333 5.80004 12.7667C5.4667 12.5333 5.20004 12.9333 5.40004 13.3C6.23337 14.6333 7.8667 15.8667 10 15.8667C12.1334 15.8667 13.7667 14.6667 14.6 13.3C14.8 12.9333 14.5334 12.5333 14.2 12.7667Z" fill="#664E27"/>
<path d="M8.83334 8.29999C8.20001 6.59999 7.26667 5.73332 6.33334 5.73332C5.40001 5.73332 4.46667 6.59999 3.83334 8.29999C3.76667 8.46666 4.10001 8.76665 4.26667 8.59999C4.86667 7.96665 5.60001 7.69999 6.33334 7.69999C7.06667 7.69999 7.80001 7.96665 8.40001 8.59999C8.60001 8.76665 8.90001 8.46666 8.83334 8.29999Z" fill="#664E27"/>
<path d="M16.1334 8.29999C15.5001 6.59999 14.5667 5.73332 13.6334 5.73332C12.7001 5.73332 11.7667 6.59999 11.1334 8.29999C11.0667 8.46666 11.4001 8.76665 11.5667 8.59999C12.1667 7.96665 12.9001 7.69999 13.6334 7.69999C14.3667 7.69999 15.1001 7.96665 15.7001 8.59999C15.8667 8.76665 16.2001 8.46666 16.1334 8.29999Z" fill="#664E27"/>
</svg>
