<svg width="20" height="20" viewBox="0 0 20 20" fill="none" xmlns="http://www.w3.org/2000/svg">
<path d="M10 20C15.5228 20 20 15.5228 20 10C20 4.47715 15.5228 0 10 0C4.47715 0 0 4.47715 0 10C0 15.5228 4.47715 20 10 20Z" fill="#FFDD67"/>
<path d="M17.0667 7.89999C16.0001 6.99999 14.5667 6.59999 13.1667 6.86666C12.9667 6.89999 12.8001 6.19999 13.0334 6.13333C14.6334 5.83333 16.3001 6.29999 17.5334 7.33333C17.7334 7.49999 17.2001 8.03333 17.0667 7.89999ZM6.8334 6.79999C5.4334 6.56666 4.00006 6.93333 2.9334 7.83333C2.80006 7.96666 2.26673 7.43333 2.46673 7.26666C3.70006 6.19999 5.36673 5.76666 6.96673 6.06666C7.20006 6.13333 7.0334 6.86666 6.8334 6.79999Z" fill="#917524"/>
<path d="M11.3 10.0667C12.7 12.7333 15.5334 12.7333 16.9334 10.0667C17 9.93332 16.8334 9.86666 16.6 9.73332C15.2 10.8333 12.9 10.7333 11.6334 9.73332C11.4334 9.86666 11.2334 9.93332 11.3 10.0667ZM3.06669 10.0667C4.46669 12.7333 7.30003 12.7333 8.70003 10.0667C8.76669 9.93332 8.60003 9.86666 8.36669 9.73332C6.96669 10.8333 4.66669 10.7333 3.40003 9.73332C3.16669 9.86666 3.00003 9.93332 3.06669 10.0667ZM12 16H8.00003C7.56669 16 7.56669 14.6667 8.00003 14.6667H12C12.4334 14.6667 12.4334 16 12 16Z" fill="#664E27"/>
<path d="M8.71764 3.77467C8.71764 3.77467 9.07097 3.06766 8.15764 2.56666C7.21497 2.03666 6.12464 4.59967 4.85764 5.15933C4.85764 5.15933 5.35864 4.18733 4.50431 3.80433C3.70897 3.48 1.49897 5.27733 1.05731 8.78333C0.615308 12.2893 5.41764 14.558 8.30498 12.5547C10.3083 11.1403 12.8716 8.518 12.4593 7.45766C12.1353 6.603 11.104 7.222 11.104 7.222C11.104 7.222 12.1353 6.19067 11.3396 5.39533C10.8683 4.92367 10.4853 5.30667 10.4853 5.30667C10.4853 5.30667 11.222 4.33433 10.4263 3.539C9.77831 2.832 8.71764 3.77467 8.71764 3.77467Z" fill="white"/>
<path d="M9.10065 3.45067C9.30665 2.36067 7.68632 1.85967 7.00865 2.77301C6.44865 3.56834 5.27032 4.747 5.27032 4.747C5.27032 4.747 5.50599 4.21667 4.91699 3.80434C4.32765 3.39167 2.88365 3.36234 1.20465 7.33967C0.585653 8.84234 0.791986 10.4037 1.76432 11.6117C2.82499 12.9083 4.73999 13.7627 6.21332 13.527C7.86332 13.2913 10.4853 11.4937 12.194 8.96034C13.3433 7.28067 12.2827 6.51467 11.546 6.95701C12.3413 5.80767 11.605 4.89434 10.8977 5.13001C11.6343 3.68634 9.98432 2.62567 9.10065 3.45067ZM9.83732 5.71934C9.33632 6.33801 7.95132 7.95834 7.95132 7.95834C7.95132 7.95834 9.18899 7.13334 10.1023 5.86667C10.9273 4.74667 11.8407 5.77834 10.6623 7.31001C10.1023 8.04667 9.10065 9.10734 9.10065 9.10734C9.10065 9.10734 10.1907 8.312 10.6327 7.75234C11.7523 6.279 12.577 7.39867 11.546 8.78334C9.68965 11.2287 7.65699 12.6723 6.18365 12.9083C4.09199 13.2323 0.43832 10.993 1.70532 7.54601C2.26532 5.98434 3.56165 3.80434 4.41599 4.12834C5.62399 4.62901 4.12132 6.30834 4.12132 6.30834C4.12132 6.30834 5.59465 5.18901 7.24465 3.12667C7.68632 2.56667 8.68799 2.80234 8.42299 3.77467C8.21632 4.62901 6.53732 6.54434 6.53732 6.54434C6.53732 6.54434 7.53899 5.60134 8.77632 4.12834C9.77832 2.94967 11.1043 4.09867 9.83732 5.71934Z" fill="#CCCFD4"/>
</svg>
